<?xml version="1.0" standalone="no"?>
<!DOCTYPE svg PUBLIC "-//W3C//DTD SVG 20010904//EN"
 "http://www.w3.org/TR/2001/REC-SVG-20010904/DTD/svg10.dtd">
<svg version="1.0" xmlns="http://www.w3.org/2000/svg"
 width="1112.000000pt" height="1112.000000pt" viewBox="0 0 1112.000000 1112.000000"
 preserveAspectRatio="xMidYMid meet">
<metadata>
Created by potrace 1.11, written by Peter Selinger 2001-2013
</metadata>
<g transform="translate(0.000000,1112.000000) scale(0.100000,-0.100000)"
fill="#000000" stroke="none">
<path d="M5540 11101 c0 -5 -10 -8 -21 -6 -34 7 -148 -13 -218 -37 -20 -7 -38
-13 -41 -13 -22 -5 -110 -50 -110 -57 0 -4 -7 -8 -15 -8 -8 0 -15 -4 -15 -10
0 -5 -6 -10 -14 -10 -19 0 -166 -145 -203 -200 -71 -106 -113 -202 -142 -322
-27 -113 -20 -279 16 -368 3 -8 7 -21 9 -28 1 -7 21 -49 43 -93 118 -230 310
-395 521 -447 105 -26 329 -22 442 8 59 16 188 81 240 122 101 78 221 226 250
308 5 17 15 30 21 30 6 0 8 3 4 6 -3 4 0 19 8 34 8 15 16 39 19 53 2 15 8 31
11 37 11 17 13 263 3 321 -5 30 -10 65 -12 79 -7 45 -54 148 -105 230 -72 117
-248 262 -370 308 -78 29 -179 53 -238 57 -34 1 -66 6 -72 10 -6 3 -11 2 -11
-4z"/>
<path d="M4805 8709 c-16 -5 -41 -11 -55 -13 -14 -3 -36 -7 -50 -10 -14 -3
-34 -8 -45 -10 -11 -2 -40 -10 -65 -17 -25 -7 -47 -13 -50 -14 -53 -12 -86
-18 -92 -17 -5 1 -8 -2 -8 -6 0 -4 -8 -8 -17 -9 -30 -2 -227 -64 -298 -94 -16
-7 -32 -13 -35 -14 -84 -20 -543 -232 -715 -330 -44 -25 -92 -51 -107 -57 -16
-7 -28 -16 -28 -20 0 -4 -5 -8 -10 -8 -6 0 -39 -20 -74 -45 -36 -25 -69 -45
-75 -45 -5 0 -11 -3 -13 -8 -1 -4 -37 -32 -78 -62 -41 -30 -80 -59 -86 -65 -6
-5 -30 -26 -54 -45 -118 -95 -411 -376 -505 -484 -5 -6 -28 -32 -50 -56 -22
-25 -62 -72 -90 -104 -27 -32 -54 -64 -60 -70 -28 -31 -125 -156 -125 -160 0
-3 -10 -17 -21 -30 -12 -14 -53 -71 -90 -128 -38 -57 -73 -108 -79 -115 -5 -7
-10 -14 -10 -17 0 -3 -20 -39 -45 -79 -25 -41 -45 -79 -45 -85 0 -6 -4 -12 -9
-14 -13 -4 -162 -313 -211 -438 -39 -98 -110 -287 -109 -293 0 -1 -2 -9 -5
-17 -15 -48 -29 -96 -29 -100 0 -3 -4 -16 -9 -30 -5 -14 -12 -34 -14 -45 -6
-23 -6 -25 -22 -80 -11 -39 -17 -66 -29 -130 -8 -47 -11 -60 -13 -60 -1 0 -3
-9 -4 -20 -11 -80 -17 -122 -21 -135 -3 -14 -10 -73 -21 -185 -19 -200 -26
-891 -11 -1035 4 -41 8 -82 8 -90 0 -8 5 -37 10 -65 4 -27 10 -61 13 -75 6
-36 18 -102 23 -125 2 -11 6 -31 9 -45 3 -14 14 -59 25 -100 11 -41 22 -84 24
-95 2 -11 28 -99 59 -195 31 -96 58 -182 60 -190 2 -9 16 -44 30 -79 14 -36
26 -68 26 -72 0 -3 8 -24 17 -45 9 -22 17 -44 19 -49 1 -6 11 -33 24 -60 12
-28 28 -66 37 -85 73 -166 159 -300 194 -300 8 0 111 84 161 132 279 266 362
344 369 346 5 2 9 10 9 18 0 8 4 14 8 14 13 0 274 266 432 440 47 52 92 101
100 110 8 9 37 43 65 75 27 33 54 65 60 71 5 7 21 26 35 44 14 18 30 37 35 44
6 6 40 49 75 96 35 47 66 87 69 90 3 3 11 13 16 22 6 9 44 66 86 125 41 59 78
116 82 126 3 9 11 17 17 17 5 0 10 5 10 10 0 6 20 41 45 78 25 37 45 72 45 79
0 6 4 13 9 15 9 3 40 52 63 98 7 14 15 27 18 30 5 5 25 40 57 100 10 19 20 37
23 40 3 3 15 23 26 45 12 22 35 65 51 95 40 74 138 264 139 270 0 3 20 46 43
95 44 92 83 177 106 230 57 133 95 228 110 270 10 28 22 54 27 59 4 6 8 16 8
24 0 8 7 28 14 45 16 34 145 400 152 430 2 9 6 25 8 35 2 9 10 31 16 47 6 17
13 37 15 45 2 8 10 38 18 65 27 87 57 190 62 210 2 11 16 65 30 120 15 55 28
107 30 115 2 8 19 83 39 166 29 127 87 406 102 494 19 107 24 139 29 170 3 19
8 46 10 60 3 14 7 43 10 65 2 22 6 49 9 60 2 11 7 45 11 75 7 58 10 81 19 145
10 68 16 118 21 172 3 29 7 70 10 90 7 52 15 129 21 194 10 110 11 119 17 125
3 3 2 17 -3 30 -5 13 -6 24 -2 24 5 0 9 12 9 28 0 15 4 57 7 95 8 73 7 73 -49
56z"/>
<path d="M6219 8697 c-6 -20 -19 -119 -24 -197 -6 -88 -7 -429 -1 -460 6 -27
24 -130 31 -170 14 -84 170 -636 210 -741 8 -20 11 -39 8 -43 -4 -3 -1 -6 6
-6 7 0 10 -4 7 -8 -3 -5 6 -40 19 -77 14 -38 27 -78 30 -89 5 -25 82 -252 95
-281 5 -11 22 -60 39 -110 16 -49 42 -121 56 -160 15 -38 28 -74 29 -80 5 -16
17 -48 28 -75 6 -14 13 -29 14 -35 14 -47 196 -507 218 -550 8 -16 13 -32 10
-37 -3 -4 -1 -8 5 -8 5 0 13 -10 16 -22 16 -51 239 -518 307 -643 6 -11 15
-27 19 -35 5 -8 20 -37 34 -65 37 -74 132 -248 205 -375 21 -36 47 -81 58
-100 126 -222 443 -726 466 -742 7 -5 7 -8 1 -8 -6 0 -6 -3 1 -8 9 -6 72 -95
99 -140 6 -9 13 -19 16 -22 3 -3 24 -32 47 -65 23 -33 64 -91 92 -130 27 -38
58 -81 67 -95 10 -14 20 -27 23 -30 3 -3 28 -34 55 -70 58 -76 47 -62 136
-175 69 -88 156 -190 192 -227 9 -10 15 -18 13 -18 -18 0 370 -388 413 -413
l31 -18 34 37 c33 36 206 368 221 424 1 3 5 13 8 23 4 9 10 25 14 35 3 9 7 19
8 22 0 3 9 20 18 37 10 18 17 34 17 35 -2 5 21 70 41 123 7 17 13 35 15 40 2
9 31 92 65 190 6 17 12 37 14 45 2 8 4 16 5 18 2 1 3 5 4 10 1 4 5 13 9 20 5
6 6 12 4 12 -3 0 8 44 25 97 16 54 31 105 33 113 2 8 4 15 5 15 1 0 3 9 4 20
2 16 10 53 21 95 1 3 5 37 10 75 4 39 10 84 12 100 7 46 11 1225 4 1225 -3 0
-6 26 -7 58 -1 105 -22 222 -71 396 -14 48 -27 96 -28 105 -2 9 -4 16 -5 16
-1 0 -3 7 -5 15 -20 88 -139 424 -190 535 -18 41 -32 75 -30 75 13 0 -259 507
-285 530 -3 3 -11 17 -19 33 -8 15 -18 27 -23 27 -4 0 -8 5 -8 11 0 6 -8 21
-17 34 -10 12 -25 33 -33 45 -22 32 -113 154 -119 160 -4 3 -19 23 -36 45 -16
22 -39 50 -50 62 -11 12 -29 32 -40 46 -96 116 -364 395 -470 487 -75 66 -242
205 -270 225 -35 25 -136 101 -152 115 -7 5 -16 10 -21 10 -5 0 -17 9 -27 20
-10 11 -24 20 -32 20 -7 0 -13 5 -13 10 0 6 -7 10 -15 10 -8 0 -15 5 -15 10 0
6 -7 10 -15 10 -8 0 -15 3 -15 8 0 4 -10 12 -23 18 -12 6 -53 30 -92 54 -63
40 -404 218 -422 222 -5 0 -35 13 -68 28 -33 14 -76 32 -95 39 -19 7 -48 19
-65 26 -41 18 -274 95 -304 101 -14 3 -28 7 -33 10 -4 3 -17 7 -28 10 -11 2
-29 6 -39 8 -11 3 -28 9 -39 15 -11 6 -22 8 -25 4 -4 -3 -13 0 -22 7 -8 7 -15
10 -15 7 0 -3 -37 4 -82 14 -46 11 -99 22 -118 24 -52 6 -180 15 -181 12z"/>
<path d="M5674 5593 c-6 -16 -17 -44 -24 -63 -7 -19 -19 -48 -25 -65 -7 -16
-23 -59 -35 -95 -22 -64 -83 -226 -100 -265 -37 -85 -110 -267 -110 -275 0 -5
-5 -10 -12 -10 -6 0 -9 -3 -6 -6 3 -3 -9 -38 -27 -77 -18 -40 -44 -97 -58
-127 -63 -140 -90 -196 -165 -347 -44 -88 -95 -187 -113 -220 -39 -71 -46 -84
-53 -103 -3 -8 -17 -33 -31 -55 -14 -22 -28 -47 -32 -55 -8 -17 -88 -158 -103
-180 -6 -8 -15 -24 -20 -35 -6 -11 -18 -32 -28 -47 -9 -15 -37 -60 -61 -100
-25 -40 -60 -94 -78 -120 -18 -26 -33 -51 -33 -56 0 -5 -8 -17 -18 -28 -9 -10
-33 -44 -52 -74 -19 -30 -40 -61 -47 -68 -7 -8 -18 -23 -25 -35 -19 -36 -206
-294 -235 -325 -7 -7 -13 -16 -13 -20 0 -6 -20 -31 -72 -92 -7 -8 -34 -40 -59
-72 -44 -55 -129 -152 -194 -223 -16 -18 -66 -72 -110 -120 -95 -105 -612
-625 -706 -710 -185 -169 -187 -171 -298 -263 -24 -21 -59 -50 -77 -67 l-34
-30 65 -53 c35 -30 74 -62 87 -73 13 -10 28 -23 34 -28 6 -4 35 -26 65 -47 30
-21 56 -41 59 -44 9 -10 180 -130 186 -130 3 0 10 -5 17 -11 18 -15 146 -98
195 -125 23 -13 53 -31 66 -39 12 -8 26 -12 29 -8 4 3 7 2 7 -4 0 -12 286
-155 395 -198 39 -15 94 -38 123 -51 29 -13 55 -24 59 -24 3 0 56 -18 117 -39
107 -38 294 -97 335 -106 24 -6 23 -5 166 -40 103 -24 214 -47 295 -59 19 -3
45 -8 57 -10 12 -3 48 -7 80 -11 32 -3 65 -8 73 -10 92 -28 770 -20 923 11 12
2 42 6 67 9 46 5 85 12 85 15 0 1 14 3 30 5 50 6 97 14 170 29 75 16 76 16
180 41 39 9 78 18 88 20 9 2 21 6 25 9 5 3 22 7 38 10 35 7 304 94 395 129
138 54 331 143 494 230 144 77 436 260 443 279 2 4 8 8 13 8 6 0 31 16 57 35
26 19 55 41 64 47 9 7 27 20 39 28 69 47 138 111 133 125 -4 8 -9 15 -13 15
-4 0 -14 12 -23 28 -9 15 -27 39 -40 53 -13 14 -32 37 -43 50 -11 13 -46 56
-78 94 -32 39 -66 79 -75 90 -99 119 -139 167 -172 205 -28 34 -211 265 -327
415 -5 6 -33 44 -63 85 -30 41 -58 80 -62 85 -50 65 -103 138 -148 205 -30 45
-61 88 -67 95 -7 8 -13 17 -13 22 0 4 -12 21 -26 38 -14 16 -35 45 -46 65 -12
19 -27 38 -32 42 -6 4 -7 8 -3 8 5 0 -3 14 -17 31 -14 17 -26 34 -26 39 0 5
-6 15 -12 22 -7 7 -19 25 -27 40 -8 15 -22 37 -33 47 -10 11 -18 23 -18 26 0
4 -15 30 -34 58 -19 29 -40 64 -47 80 -7 15 -16 27 -21 27 -4 0 -8 5 -8 11 0
6 -9 24 -21 40 -11 16 -18 29 -14 29 3 0 -3 9 -14 21 -11 12 -25 35 -32 53 -7
17 -16 33 -20 36 -4 3 -17 23 -29 45 -22 38 -34 60 -96 173 -50 88 -96 175
-132 246 -21 39 -40 73 -44 74 -5 2 -8 8 -8 13 0 5 -43 96 -95 202 -53 105
-96 193 -96 194 -9 34 -13 43 -22 43 -6 0 -8 3 -4 6 3 4 -4 25 -16 48 -13 22
-29 57 -37 76 -12 31 -25 62 -75 175 -8 17 -26 59 -40 95 -15 36 -34 81 -42
100 -31 71 -134 337 -138 354 -1 6 -8 25 -14 41 -7 17 -23 62 -36 100 -13 39
-40 115 -60 170 -20 55 -38 107 -40 115 -8 34 -45 98 -60 104 -26 10 -29 8
-41 -21z"/>
</g>
</svg>
