<?xml version="1.0" encoding="UTF-8" standalone="no"?>
<svg
   xmlns:dc="http://purl.org/dc/elements/1.1/"
   xmlns:cc="http://creativecommons.org/ns#"
   xmlns:rdf="http://www.w3.org/1999/02/22-rdf-syntax-ns#"
   xmlns:svg="http://www.w3.org/2000/svg"
   xmlns="http://www.w3.org/2000/svg"
   viewBox="0 0 218 278"
   height="278"
   width="218"
   version="1.1"
   id="svg3390">
  <metadata
     id="metadata3396">
    <rdf:RDF>
      <cc:Work
         rdf:about="">
        <dc:format>image/svg+xml</dc:format>
        <dc:type
           rdf:resource="http://purl.org/dc/dcmitype/StillImage" />
        <dc:title></dc:title>
      </cc:Work>
    </rdf:RDF>
  </metadata>
  <defs
     id="defs3394" />
  <path
     id="path3481"
     d="M 103.00661,40.340523 C 97.138462,38.506588 92.072419,33.39687 89.593978,26.81226 86.959513,19.813131 89.493092,11.053124 95.789009,5.3925531 c 8.814231,-7.924749 23.130001,-5.96747512 29.839231,4.0796625 2.53416,3.7949444 3.49971,7.4401134 3.2984,12.4522374 -0.14672,3.652848 -0.32832,4.433166 -1.70772,7.337772 -2.51008,5.285518 -6.61525,9.025298 -11.90478,10.845164 -2.90056,0.997937 -9.46261,1.122238 -12.30753,0.233134 z"
     style="fill:#000000" />
  <path
     id="path3483"
     d="M 13.600397,220.86888 C 10.737588,217.2444 5.6341057,204.08122 2.8454312,193.1291 0.49462746,183.89666 -0.0719481,177.67308 0.28164729,164.96709 0.63145858,152.39708 1.6694406,145.18008 4.3995222,136.33588 10.051562,118.02587 19.118438,103.5612 34.102473,88.949813 42.966622,80.306116 49.649996,75.63825 60.961738,70.190507 70.438976,65.626262 78.263572,62.854837 87.00563,60.965918 l 4.543096,-0.98164 -0.235196,2.379821 C 91.18417,63.673 90.791236,67.681132 90.440346,71.271058 86.333141,113.29129 74.157075,149.87209 54.518778,179.19093 c -5.370484,8.01782 -9.723041,13.45086 -17.235101,21.51351 -7.188001,7.71486 -21.378981,21.32248 -22.236564,21.32248 -0.292619,0 -0.943641,-0.52112 -1.446716,-1.15804 z"
     style="fill:#000000" />
  <path
     id="path3485"
     d="m 197.49683,219.81611 c -16.86545,-16.68608 -38.16851,-49.36016 -51.60105,-79.14436 -6.97773,-15.47184 -16.89204,-44.555902 -20.30917,-59.577858 -0.76162,-3.348148 -0.93136,-5.3033 -0.8893,-10.243939 0.0286,-3.358319 0.20817,-7.053522 0.39908,-8.211563 l 0.34709,-2.105528 2.37577,0.07957 c 1.30667,0.04376 4.61654,0.648157 7.35527,1.3431 23.96186,6.080241 43.45119,18.921267 60.15581,39.63514 8.32091,10.318 14.56549,22.60248 18.70108,36.78917 3.13001,10.73718 3.1772,11.17533 3.1813,29.53499 0.004,18.6137 -0.0695,19.25962 -3.43087,30.08836 -2.27713,7.33585 -5.03791,14.43876 -7.61902,19.60212 -2.26971,4.54042 -3.32877,6.10603 -4.13042,6.10603 -0.32915,0 -2.37016,-1.75285 -4.53557,-3.89523 z"
     style="fill:#000000" />
  <path
     id="path3487"
     d="M 100.57008,276.88953 C 84.15546,275.32391 66.542586,269.64437 52.927129,261.52634 48.05311,258.62027 40.266175,253.05201 37.077726,250.19278 l -1.589807,-1.42564 2.724271,-2.21684 c 9.162648,-7.45596 27.984637,-26.65208 34.919214,-35.61332 11.713124,-15.13632 21.409249,-31.48421 29.638056,-49.9704 3.30097,-7.4157 6.34641,-15.01975 7.88282,-19.68231 0.62884,-1.90836 1.32624,-3.58277 1.54978,-3.72093 0.81241,-0.5021 1.61119,0.80785 2.9274,4.80075 7.78924,23.6298 19.68907,47.96675 33.80442,69.13519 7.62391,11.43338 15.26974,21.4375 25.90797,33.89901 2.57037,3.01091 4.67614,5.60134 4.67948,5.75651 0.003,0.15518 -1.72425,1.55217 -3.83909,3.10442 -17.76891,13.04202 -33.73989,19.43714 -55.65759,22.2865 -4.52585,0.58837 -14.95767,0.77273 -19.45457,0.34381 z"
     style="fill:#000000" />
</svg>
